<svg width="31" height="46" viewBox="0 0 31 46" fill="none" xmlns="http://www.w3.org/2000/svg">
<path d="M30.7812 37.8438V46H0C0.333333 42.9167 1.33333 40 3 37.25C4.66667 34.4792 7.95833 30.8125 12.875 26.25C16.8333 22.5625 19.2604 20.0625 20.1562 18.75C21.3646 16.9375 21.9688 15.1458 21.9688 13.375C21.9688 11.4167 21.4375 9.91667 20.375 8.875C19.3333 7.8125 17.8854 7.28125 16.0312 7.28125C14.1979 7.28125 12.7396 7.83333 11.6562 8.9375C10.5729 10.0417 9.94792 11.875 9.78125 14.4375L1.03125 13.5625C1.55208 8.72917 3.1875 5.26042 5.9375 3.15625C8.6875 1.05208 12.125 0 16.25 0C20.7708 0 24.3229 1.21875 26.9062 3.65625C29.4896 6.09375 30.7812 9.125 30.7812 12.75C30.7812 14.8125 30.4062 16.7812 29.6562 18.6562C28.9271 20.5104 27.7604 22.4583 26.1562 24.5C25.0938 25.8542 23.1771 27.8021 20.4062 30.3438C17.6354 32.8854 15.875 34.5729 15.125 35.4062C14.3958 36.2396 13.8021 37.0521 13.3438 37.8438H30.7812Z" fill="url(#paint0_linear_653_65)"/>
<defs>
<linearGradient id="paint0_linear_653_65" x1="16.4062" y1="-13" x2="16.4063" y2="61" gradientUnits="userSpaceOnUse">
<stop stop-color="white"/>
<stop offset="0.615385" stop-color="#0B3A4F"/>
</linearGradient>
</defs>
</svg>
