<svg width="31" height="47" viewBox="0 0 31 47" fill="none" xmlns="http://www.w3.org/2000/svg">
<path d="M0 33.8438L8.5 32.8125C8.77083 34.9792 9.5 36.6354 10.6875 37.7812C11.875 38.9271 13.3125 39.5 15 39.5C16.8125 39.5 18.3333 38.8125 19.5625 37.4375C20.8125 36.0625 21.4375 34.2083 21.4375 31.875C21.4375 29.6667 20.8438 27.9167 19.6562 26.625C18.4688 25.3333 17.0208 24.6875 15.3125 24.6875C14.1875 24.6875 12.8438 24.9062 11.2812 25.3438L12.25 18.1875C14.625 18.25 16.4375 17.7396 17.6875 16.6562C18.9375 15.5521 19.5625 14.0938 19.5625 12.2812C19.5625 10.7396 19.1042 9.51042 18.1875 8.59375C17.2708 7.67708 16.0521 7.21875 14.5312 7.21875C13.0312 7.21875 11.75 7.73958 10.6875 8.78125C9.625 9.82292 8.97917 11.3438 8.75 13.3438L0.65625 11.9688C1.21875 9.19792 2.0625 6.98958 3.1875 5.34375C4.33333 3.67708 5.91667 2.375 7.9375 1.4375C9.97917 0.479167 12.2604 0 14.7812 0C19.0938 0 22.5521 1.375 25.1562 4.125C27.3021 6.375 28.375 8.91667 28.375 11.75C28.375 15.7708 26.1771 18.9792 21.7812 21.375C24.4062 21.9375 26.5 23.1979 28.0625 25.1562C29.6458 27.1146 30.4375 29.4792 30.4375 32.25C30.4375 36.2708 28.9688 39.6979 26.0312 42.5312C23.0938 45.3646 19.4375 46.7812 15.0625 46.7812C10.9167 46.7812 7.47917 45.5938 4.75 43.2188C2.02083 40.8229 0.4375 37.6979 0 33.8438Z" fill="url(#paint0_linear_653_67)"/>
<defs>
<linearGradient id="paint0_linear_653_67" x1="15.5938" y1="-13" x2="15.5938" y2="61" gradientUnits="userSpaceOnUse">
<stop stop-color="white"/>
<stop offset="0.615385" stop-color="#0B3A4F"/>
</linearGradient>
</defs>
</svg>
