<svg width="24" height="24" viewBox="0 0 24 24" fill="none" xmlns="http://www.w3.org/2000/svg">
<path d="M12.558 2.98202C12.1941 2.85888 11.7998 2.85888 11.436 2.98202L4.65995 5.27702C4.43925 5.34872 4.24432 5.48337 4.09916 5.66442C3.954 5.84547 3.86495 6.06501 3.84295 6.29602C3.50595 10.522 4.09095 13.647 5.47995 16.008C6.82395 18.293 8.97395 19.954 11.997 21.192C15.023 19.954 17.175 18.293 18.519 16.008C19.909 13.648 20.494 10.522 20.157 6.29602C20.135 6.06501 20.0459 5.84547 19.9007 5.66442C19.7556 5.48337 19.5607 5.34872 19.34 5.27702L12.558 2.98202ZM10.955 1.56202C11.6307 1.33294 12.363 1.33259 13.039 1.56102L19.821 3.85602C20.3191 4.02193 20.7578 4.33 21.083 4.74225C21.4082 5.15451 21.6056 5.65292 21.651 6.17602C22.004 10.586 21.411 14.052 19.812 16.769C18.208 19.494 15.651 21.367 12.272 22.698C12.0952 22.7677 11.8987 22.7677 11.722 22.698C8.34595 21.367 5.78995 19.494 4.18695 16.769C2.58895 14.052 1.99595 10.585 2.34795 6.17602C2.39327 5.65292 2.5907 5.15451 2.91588 4.74225C3.24106 4.33 3.67978 4.02193 4.17795 3.85602L10.955 1.56202Z" fill="#023347"/>
<path opacity="0.5" d="M12 20C17.032 17.96 19.406 14.382 18.943 7.63297C18.891 6.86597 18.367 6.21697 17.64 5.96397L12.82 4.28597C12.5563 4.19418 12.2792 4.1472 12 4.14697V20Z" fill="#2A8E9E"/>
</svg>
