<svg width="167" height="36" viewBox="0 0 167 36" fill="none" xmlns="http://www.w3.org/2000/svg">
<rect width="36" height="36" rx="7.82609" fill="#2A8E9E"/>
<path d="M21.8 8C18 9.8 18 15 18 15M18 15C18 15 18 9.8 14.2 8M18 15V26M18 26C18 26 17.3 26.8 17 27.1C15.5 28.7 13.7 28 12.1 26.4C10.5 24.9 9.8 23.1 11.4 21.5C11.9 20.9 13.1 20.4 14 20H12C10.9 20 10 19.5 9.5 18.6C8.6 17.4 8 15.3 8 13C8 12.4696 8.21071 11.9609 8.58579 11.5858C8.96086 11.2107 9.46957 11 10 11C13.5 11 16.5 14.9 18 17.3C19.5 14.9 22.5 11 26 11C26.5304 11 27.0391 11.2107 27.4142 11.5858C27.7893 11.9609 28 12.4696 28 13C28 15.3 27.4 17.4 26.5 18.6C26 19.5 25.1 20 24 20H22C22.9 20.4 24.1 21 24.6 21.5C26.2 23 25.5 24.8 23.9 26.4C22.4 28 20.6 28.7 19 27.1C18.6 26.8 18 26 18 26Z" stroke="white" stroke-width="2" stroke-linecap="round" stroke-linejoin="round"/>
<rect x="131" width="36" height="36" rx="18" fill="#023347"/>
<path d="M149.034 7.68663C148.791 7.56393 148.522 7.5 148.25 7.5C147.978 7.5 147.709 7.56393 147.466 7.68663L139.702 11.5946C138.062 12.4196 138.628 14.9216 140.486 14.9216H142.5V22.5006H140.75C140.153 22.5006 139.581 22.7377 139.159 23.1596C138.737 23.5816 138.5 24.1539 138.5 24.7506C138.5 25.3474 138.737 25.9197 139.159 26.3416C139.581 26.7636 140.153 27.0006 140.75 27.0006H155.75C156.347 27.0006 156.919 26.7636 157.341 26.3416C157.763 25.9197 158 25.3474 158 24.7506C158 24.1539 157.763 23.5816 157.341 23.1596C156.919 22.7377 156.347 22.5006 155.75 22.5006H154V14.9206H156.014C157.872 14.9206 158.437 12.4196 156.798 11.5946L149.034 7.68663ZM144 22.5006V14.9206H147.5V22.5006H144ZM149 22.5006V14.9206H152.5V22.5006H149Z" fill="white"/>
<path d="M114.354 15.3536C114.549 15.1583 114.549 14.8417 114.354 14.6464L111.172 11.4645C110.976 11.2692 110.66 11.2692 110.464 11.4645C110.269 11.6597 110.269 11.9763 110.464 12.1716L113.293 15L110.464 17.8284C110.269 18.0237 110.269 18.3403 110.464 18.5355C110.66 18.7308 110.976 18.7308 111.172 18.5355L114.354 15.3536ZM49 15V15.5H114V15V14.5H49V15Z" fill="#969696"/>
<path d="M48.6464 22.3536C48.4512 22.1583 48.4512 21.8417 48.6464 21.6464L51.8284 18.4645C52.0237 18.2692 52.3403 18.2692 52.5355 18.4645C52.7308 18.6597 52.7308 18.9763 52.5355 19.1716L49.7071 22L52.5355 24.8284C52.7308 25.0237 52.7308 25.3403 52.5355 25.5355C52.3403 25.7308 52.0237 25.7308 51.8284 25.5355L48.6464 22.3536ZM114 22V22.5H49V22V21.5H114V22Z" fill="#969696"/>
</svg>
