<svg width="911" height="1081" viewBox="0 0 911 1081" fill="none" xmlns="http://www.w3.org/2000/svg">
<path d="M68.8 51.02C82.51 74.54 84.7999 107.35 96.2599 133.74C108.38 161.74 129.48 180.12 154.83 194.95C198.31 220.39 256.09 229.06 308.69 245.57C342.37 256.15 373.19 266.63 389.42 294.57C399.61 312.09 395.42 336.21 388.76 353.46C373.16 393.98 344.44 421.89 319.94 453.39C311.2 464.62 300.54 475.09 293.14 487.47C291.458 490.407 290.868 493.844 291.474 497.174C292.08 500.504 293.842 503.513 296.45 505.67C308.84 515.02 326.94 521.99 343.1 526.84C349.59 528.84 359.1 529.61 361.63 523.54C365.48 514.35 351.43 487.8 349.39 478.54C343.9 453.59 376 435.68 401.01 439.82C435.33 445.51 448.6 467.76 466.85 489.12C490.11 516.34 528.85 545.25 562.14 562.25C591.32 577.13 630.91 585.32 650.14 610.25C654.372 615.766 657.722 621.906 660.07 628.45C668.71 652.82 658.14 672.77 643.85 683.7C632.06 692.7 617.85 699.7 602.85 705.54C576.15 716.03 546.42 722.83 532.38 745.91C528.95 751.762 526.491 758.131 525.1 764.77V775.36C522.1 793.36 524.59 829.82 539.99 831.94C546.19 829.18 553.81 813.18 557.85 807.12C568.77 790.78 584.95 767.12 599.85 755.17C622.69 736.92 646.31 719.68 670.32 702.56C684.84 692.21 701.77 680.63 709.32 663.56C721.66 635.76 711.06 600.11 692.77 585.47C670.09 567.31 637.85 558.54 609.06 546.47C576.78 532.88 534.22 504.36 514.06 478.64C511.06 474.74 506.61 471.64 503.8 467.39C493.105 451.36 485.373 433.541 480.97 414.78C479.87 406.84 478.767 398.897 477.66 390.95C476.78 372.763 475.897 354.567 475.01 336.36C471.01 312.72 461.88 292.36 445.9 280.77C409.9 254.77 357.48 236.98 308.58 224.52C266.58 213.82 218.75 209.21 186.15 188.78C165.36 175.78 154.82 154.6 149.09 127.24C146.79 116.24 148.61 104.17 146.78 92.17C144.28 75.76 142.45 63.23 137.18 50.8C131.891 38.6796 124.496 27.5917 115.34 18.05C111.67 14.02 99.8399 4.95 98.5799 0.02H25.45L45.64 18.22C54.92 26.88 62.25 39.73 68.8 51.02Z" fill="#2A8E9E" fill-opacity="0.5"/>
<path d="M423.14 121.78L514.8 139.98C533.56 143.62 553.38 138.61 569.39 135.35C575.89 134.03 584.84 135.07 589.91 132.04C609.91 120.12 600.59 105.36 608.11 83.73C619.27 51.61 636.46 27.35 652.11 0.02H616.05C611.18 15.02 596.3 24.19 587.26 35.42C571.84 54.59 558.94 76.37 544.58 96.64C537.82 106.17 530.64 116.87 518.44 120.79C507.01 124.47 491.93 119.79 482.37 117.48L451.6 111.53C428.05 106.59 401.71 105.96 381.45 97.63C352.99 85.93 339.62 62.46 328.18 33.44C324.8 24.87 318.65 10.06 318.25 0.02H301.05C310.63 32.02 310.43 62.49 328.51 85.72C348.56 111.43 384.92 113.83 423.14 121.78Z" fill="#2A8E9E" fill-opacity="0.5"/>
<path d="M434.14 51.64L468.22 56.64C480.73 59.13 499.3 64.46 512.56 60.28C533.84 53.57 544.93 34.44 556.56 17.93L568.14 1.02L568.8 0.36L537.99 0.02L532.37 9.62C525.74 20.44 517.63 35.53 505.56 40.72C494.17 45.62 476.1 40.92 464.56 38.72C433.04 32.72 397.88 38.14 398.06 0.01H383.83C388.94 30.02 405.84 44.64 434.14 51.64Z" fill="#2A8E9E" fill-opacity="0.5"/>
<path d="M897.33 1004.58C879.93 1011.45 863.17 1018.4 843.73 1022.45C785.36 1034.6 729.31 991.59 720.97 947.34C716.22 922.16 727.61 885.34 734.87 867.59C736.31 864.07 745.78 843.77 745.78 843.77C742.78 847.25 735.06 851.61 731.23 854.69C718.67 864.79 708.38 882.92 701.78 898.69C697.55 908.77 694.71 919.79 692.18 931.44C688.46 948.61 691.56 970.44 696.18 983.72C710.76 1025.91 748.71 1052.6 791.81 1066.11C802.31 1069.41 813.96 1069.44 826.22 1071.41C849.16 1075.1 881.39 1057.89 895.7 1050.56C900.3 1048.21 905.29 1043.7 910.92 1042.95V998.62L910.59 998.29L897.33 1004.58Z" fill="#2A8E9E" fill-opacity="0.5"/>
<path d="M518.47 991.02C500.36 983.73 474.6 990.53 459.24 995.32C421.37 1007.15 386.92 1026.06 365.93 1054.88C361.32 1061.22 351.6 1071.7 349.39 1079.37L348.73 1080.03H404.31C405.99 1074.71 418.41 1066.03 423.17 1062.82C449.47 1045.25 501.01 1029.66 524.09 1061.17C527.56 1065.9 533.03 1072.7 533.36 1080.03H566.14L557.53 1055.54C549.44 1029.75 542.48 1000.68 518.47 991.02Z" fill="#2A8E9E" fill-opacity="0.5"/>
<path d="M789.79 258.11L796.74 252.48C800.63 249.78 806.2 247.81 811.3 246.48C834.64 240.62 863.36 244.87 886.41 238.87C893.88 236.87 900.71 230.2 905.6 225.3C907.23 223.67 908.46 220.75 910.89 220.01V186.64H909.57C905.14 197.09 895.2 207.64 884.76 212.12C876.22 215.78 865.46 215.65 855.31 217.74L793.43 230.31C765.25 238.31 750.9 254.25 744.13 283.59L742.48 298.81C741.07 307.88 743.87 317.81 745.78 324.28C755.25 356.58 785.21 356.69 814.28 369.28L845.71 383.18C866.15 395.18 880.48 411.18 893.71 430.5C899.17 438.5 909.45 453.44 910.25 464.91H910.58L910.91 404.36C899.8 390.62 884.81 380.91 870.22 370.61C860.29 363.61 850.69 356.23 838.45 351.42C811.67 340.89 783.89 345.02 769.96 320.64C767.03 315.51 765.82 308.47 764.66 301.78C760.14 275.51 774.14 265.46 789.79 258.11Z" fill="#2A8E9E" fill-opacity="0.5"/>
<path d="M898.98 736.23C891.36 753.74 885.12 782.62 890.38 807.37C896.85 837.79 906.59 868.48 893.69 899.03C889.16 909.76 880.3 920.16 871.19 926.49C850.5 940.86 812.19 946.59 794.76 924.84L786.14 911.27C778.14 890.89 792.38 880.47 806.99 875.87C810.99 874.61 816.7 872.39 822.87 873.55C829.56 874.81 834.13 878.17 839.41 880.83H841.07C842.497 874.763 843.93 868.697 845.37 862.63C847.37 849.72 840.08 825.86 837.43 814.63C834.25 801.18 828.66 783.54 832.43 766.99C836.49 749.3 846.43 735.27 854.59 721.32C864.81 703.85 872.94 684.7 880.4 664.74C907.66 591.86 879.1 517 844.67 471.18C825.45 445.59 793.81 429.41 759.3 419.23C744.89 414.97 727.3 415.45 711.98 411.62C684.65 404.77 663.68 385.92 659.04 356.69C655.74 335.86 672.69 316.58 678.57 302.43C703.48 242.43 723.18 204.56 782.79 178.68C806.29 168.47 856.87 158.58 869.79 140.29C887.51 115.29 883.3 84.79 872.79 56.91C869.29 47.65 867.56 38.34 862.54 30.77C855.54 20.22 840.11 14.33 837.39 0H804.3C804.14 6.13 802.54 12.37 803.64 18.86C809.31 52.36 830.13 69.54 840.7 97.28C846.85 113.42 833.41 138.88 821.51 142.94C818.04 144.12 812 143.71 808.6 142.94C791.45 139.06 788.26 126.36 780.48 113.16C766.58 89.59 738.04 60.22 744.08 20.85C745.16 13.78 744.76 5.94 747.39 0.33L702.14 0.02C701.8 8.95 697.14 17.15 695.52 26.49C692.52 43.22 705.6 61.81 711.73 70.83C722.58 86.77 737.42 98.41 747.47 115.5C751.32 122.04 756.07 131.77 753.09 142.96C749.09 157.81 728.03 169.76 719.01 181.34C702.68 202.34 689.66 225.7 675.67 249.17C661.9 272.27 647.37 296.28 636.29 321.64C628.62 339.21 623.35 364.17 630.67 385.17C648.67 436.78 681.89 432.78 731.26 450.35C787.9 470.51 829.66 486.05 852.69 540.35C856.463 549.425 859.343 558.846 861.29 568.48C861.73 573.88 862.173 579.283 862.62 584.69L862.95 604.54C860.68 617.81 860.53 630.42 856.66 641.93C840.66 689.53 819 728.32 783.2 755.76C744.92 785.1 693.8 801.62 670.04 845.42C659.62 864.65 652.41 886.97 643.57 907.96C632.57 934.13 620.52 957.54 615.12 989.36C614.2 994.75 615.64 1000.7 616.44 1004.91C619.86 1022.91 623.1 1037.84 627.69 1054.21C629.52 1060.75 634.06 1071.59 631.69 1080.02H701.84C699.96 1074.56 680.55 1059.64 675.7 1053.55C662.036 1036.84 652.278 1017.28 647.14 996.31C640.83 971 649.44 943.14 656.41 925.17C672.34 884.08 687.77 840.73 726.22 822.59L743.1 817.59L768.91 809.65C774.69 807.38 783.35 802.3 792.07 804.02C806.93 807.02 803.95 826.87 799.07 838.1C787.9 863.54 760.83 883.21 768.96 925.79C770.064 932.136 771.837 938.347 774.25 944.32C786.25 972.92 834.91 979.18 867.89 965.49C874.62 962.7 880.42 958.18 885.76 953.91C892.91 948.19 899.31 938.58 904.62 931.08C906.38 928.6 907.89 923.25 910.9 922.15V713.73C907.58 715.61 900.93 731.76 898.98 736.23Z" fill="#2A8E9E" fill-opacity="0.5"/>
</svg>
