<svg width="264" height="134" viewBox="0 0 264 134" fill="none" xmlns="http://www.w3.org/2000/svg">
<g filter="url(#filter0_i_659_111)">
<rect width="264" height="134" rx="10" fill="#F5F9FA"/>
</g>
<path d="M35.7852 24.8125C35.7852 25.5703 35.6484 26.2891 35.375 26.9688C35.1094 27.6406 34.7383 28.2148 34.2617 28.6914C33.6602 29.2852 32.9531 29.7344 32.1406 30.0391C31.3281 30.3438 30.3008 30.4961 29.0586 30.4961H27.0898V37H24.7695V19.5508H29.1523C30.1836 19.5508 31.0625 19.6367 31.7891 19.8086C32.5156 19.9805 33.1562 20.2578 33.7109 20.6406C34.3594 21.0859 34.8672 21.6523 35.2344 22.3398C35.6016 23.0195 35.7852 23.8438 35.7852 24.8125ZM33.3711 24.8711C33.3711 24.2695 33.2656 23.7461 33.0547 23.3008C32.8516 22.8555 32.5391 22.4922 32.1172 22.2109C31.75 21.9688 31.3203 21.7969 30.8281 21.6953C30.3438 21.5938 29.7383 21.543 29.0117 21.543H27.0898V28.5156H28.6719C29.6094 28.5156 30.3672 28.4414 30.9453 28.293C31.5234 28.1367 32.0039 27.8633 32.3867 27.4727C32.7305 27.1211 32.9805 26.7383 33.1367 26.3242C33.293 25.9102 33.3711 25.4258 33.3711 24.8711ZM40.0859 37H37.8828V18.7656H40.0859V37ZM53.5156 37H51.3125V35.5469C50.6328 36.1406 49.9883 36.5938 49.3789 36.9062C48.7695 37.2109 48.0898 37.3633 47.3398 37.3633C46.7695 37.3633 46.2305 37.2695 45.7227 37.082C45.2227 36.8945 44.7852 36.5977 44.4102 36.1914C44.0352 35.7852 43.7422 35.2734 43.5312 34.6562C43.3281 34.0391 43.2266 33.2891 43.2266 32.4062V23.9102H45.4297V31.3633C45.4297 32.0586 45.4531 32.6367 45.5 33.0977C45.5547 33.5508 45.6719 33.9492 45.8516 34.293C46.0312 34.6289 46.2734 34.875 46.5781 35.0312C46.8906 35.1875 47.3359 35.2656 47.9141 35.2656C48.4531 35.2656 49.0273 35.1133 49.6367 34.8086C50.2461 34.5039 50.8047 34.1289 51.3125 33.6836V23.9102H53.5156V37ZM60.2422 37.3164C59.3672 37.3164 58.5469 37.1992 57.7812 36.9648C57.0234 36.7305 56.3945 36.4805 55.8945 36.2148V33.7422H56.0117C56.1992 33.8906 56.418 34.0547 56.668 34.2344C56.9258 34.4141 57.2656 34.6016 57.6875 34.7969C58.0625 34.9688 58.4727 35.1211 58.918 35.2539C59.3711 35.3867 59.8398 35.4531 60.3242 35.4531C60.6758 35.4531 61.0508 35.4141 61.4492 35.3359C61.8477 35.25 62.1445 35.1445 62.3398 35.0195C62.6133 34.8398 62.8086 34.6484 62.9258 34.4453C63.0508 34.2422 63.1133 33.9375 63.1133 33.5312C63.1133 33.0078 62.9688 32.6133 62.6797 32.3477C62.3984 32.082 61.8945 31.8594 61.168 31.6797C60.8867 31.6094 60.5195 31.5273 60.0664 31.4336C59.6133 31.3398 59.1953 31.2383 58.8125 31.1289C57.8125 30.8398 57.0859 30.3945 56.6328 29.793C56.1797 29.1836 55.9531 28.4492 55.9531 27.5898C55.9531 26.4102 56.3984 25.4492 57.2891 24.707C58.1797 23.9648 59.3633 23.5938 60.8398 23.5938C61.5664 23.5938 62.2969 23.6836 63.0312 23.8633C63.7656 24.043 64.3828 24.2695 64.8828 24.543V26.8984H64.7656C64.2031 26.4531 63.5742 26.1016 62.8789 25.8438C62.1914 25.5859 61.4961 25.457 60.793 25.457C60.0664 25.457 59.4531 25.6094 58.9531 25.9141C58.4531 26.2188 58.2031 26.6797 58.2031 27.2969C58.2031 27.8438 58.3516 28.2539 58.6484 28.5273C58.9453 28.793 59.4219 29.0117 60.0781 29.1836C60.4062 29.2695 60.7695 29.3555 61.168 29.4414C61.5742 29.5195 62 29.6133 62.4453 29.7227C63.4141 29.9648 64.1406 30.3672 64.625 30.9297C65.1172 31.4922 65.3633 32.2578 65.3633 33.2266C65.3633 33.7891 65.25 34.3242 65.0234 34.832C64.8047 35.332 64.4805 35.7617 64.0508 36.1211C63.582 36.5117 63.0508 36.8086 62.457 37.0117C61.8711 37.2148 61.1328 37.3164 60.2422 37.3164Z" fill="#023347"/>
<path d="M31 108.031C31 108.797 30.7057 109.456 30.1172 110.008C29.5339 110.555 28.7969 110.883 27.9062 110.992V113.82H27.0156V111.031C26.4531 111.026 25.8854 110.961 25.3125 110.836C24.7448 110.711 24.25 110.544 23.8281 110.336V108.758H23.9453C24.3568 109.065 24.8203 109.315 25.3359 109.508C25.8516 109.701 26.4115 109.823 27.0156 109.875V106.5C26.8854 106.469 26.7266 106.432 26.5391 106.391C26.3516 106.344 26.1927 106.299 26.0625 106.258C25.2812 106.044 24.7214 105.721 24.3828 105.289C24.0495 104.857 23.8828 104.326 23.8828 103.695C23.8828 102.956 24.1719 102.312 24.75 101.766C25.3281 101.219 26.0833 100.901 27.0156 100.812V98.6875H27.9062V100.797C28.3802 100.812 28.8698 100.88 29.375 101C29.8854 101.115 30.3021 101.242 30.625 101.383V102.93H30.5078C30.1432 102.68 29.7422 102.461 29.3047 102.273C28.8724 102.086 28.4062 101.971 27.9062 101.93V105.289C28.0781 105.326 28.237 105.365 28.3828 105.406C28.5339 105.443 28.6641 105.474 28.7734 105.5C29.4818 105.667 30.0286 105.956 30.4141 106.367C30.8047 106.779 31 107.333 31 108.031ZM27.0156 105.172V101.938C26.5469 101.979 26.1536 102.133 25.8359 102.398C25.5182 102.659 25.3594 103.023 25.3594 103.492C25.3594 103.956 25.474 104.315 25.7031 104.57C25.9375 104.82 26.375 105.021 27.0156 105.172ZM29.5234 108.234C29.5234 107.745 29.3984 107.383 29.1484 107.148C28.8984 106.914 28.4844 106.737 27.9062 106.617V109.859C28.4375 109.797 28.8385 109.638 29.1094 109.383C29.3854 109.122 29.5234 108.74 29.5234 108.234ZM39.7656 111H32.5859V109.367C33.1016 108.878 33.5885 108.409 34.0469 107.961C34.5052 107.513 34.9531 107.047 35.3906 106.562C36.276 105.589 36.8802 104.81 37.2031 104.227C37.526 103.638 37.6875 103.031 37.6875 102.406C37.6875 102.083 37.6354 101.799 37.5312 101.555C37.4323 101.31 37.2943 101.107 37.1172 100.945C36.9349 100.789 36.724 100.672 36.4844 100.594C36.2448 100.516 35.9818 100.477 35.6953 100.477C35.4193 100.477 35.138 100.513 34.8516 100.586C34.5703 100.654 34.2995 100.74 34.0391 100.844C33.8203 100.932 33.6094 101.039 33.4062 101.164C33.2031 101.289 33.0391 101.396 32.9141 101.484H32.8281V99.8281C33.151 99.6667 33.599 99.5104 34.1719 99.3594C34.75 99.2031 35.2969 99.125 35.8125 99.125C36.8958 99.125 37.7448 99.4141 38.3594 99.9922C38.974 100.565 39.2812 101.344 39.2812 102.328C39.2812 102.781 39.2266 103.201 39.1172 103.586C39.013 103.971 38.8672 104.328 38.6797 104.656C38.487 104.995 38.2552 105.331 37.9844 105.664C37.7135 105.997 37.4271 106.326 37.125 106.648C36.6354 107.18 36.0885 107.732 35.4844 108.305C34.8854 108.878 34.4062 109.331 34.0469 109.664H39.7656V111ZM43.8203 111H41.9531V108.773H43.8203V111ZM51.8125 104.148C51.8125 103.357 51.7396 102.714 51.5938 102.219C51.4479 101.719 51.2474 101.333 50.9922 101.062C50.763 100.812 50.5312 100.641 50.2969 100.547C50.0625 100.453 49.8047 100.406 49.5234 100.406C48.8828 100.406 48.3724 100.635 47.9922 101.094C47.612 101.552 47.4219 102.216 47.4219 103.086C47.4219 103.576 47.4844 103.979 47.6094 104.297C47.7344 104.615 47.9375 104.888 48.2188 105.117C48.4167 105.279 48.6406 105.388 48.8906 105.445C49.1406 105.497 49.4089 105.523 49.6953 105.523C50.0286 105.523 50.388 105.466 50.7734 105.352C51.1589 105.232 51.4948 105.076 51.7812 104.883C51.7865 104.805 51.7917 104.703 51.7969 104.578C51.8073 104.448 51.8125 104.305 51.8125 104.148ZM45.8359 103.148C45.8359 102.549 45.9323 102.003 46.125 101.508C46.3229 101.013 46.5911 100.586 46.9297 100.227C47.2526 99.8828 47.6458 99.6146 48.1094 99.4219C48.5781 99.2292 49.0521 99.1328 49.5312 99.1328C50.0677 99.1328 50.5521 99.224 50.9844 99.4062C51.4219 99.5833 51.7995 99.8411 52.1172 100.18C52.5182 100.607 52.8281 101.167 53.0469 101.859C53.2708 102.552 53.3828 103.427 53.3828 104.484C53.3828 105.448 53.2734 106.362 53.0547 107.227C52.8411 108.086 52.5234 108.799 52.1016 109.367C51.6536 109.971 51.1146 110.432 50.4844 110.75C49.8594 111.068 49.0859 111.227 48.1641 111.227C47.9557 111.227 47.7344 111.214 47.5 111.188C47.2656 111.167 47.0469 111.125 46.8438 111.062V109.57H46.9219C47.0521 109.643 47.2552 109.714 47.5312 109.781C47.8073 109.849 48.0885 109.883 48.375 109.883C49.3958 109.883 50.1979 109.547 50.7812 108.875C51.3646 108.203 51.6953 107.242 51.7734 105.992C51.3568 106.273 50.9583 106.479 50.5781 106.609C50.2031 106.74 49.7943 106.805 49.3516 106.805C48.9193 106.805 48.526 106.758 48.1719 106.664C47.8177 106.57 47.4609 106.388 47.1016 106.117C46.6849 105.799 46.3698 105.398 46.1562 104.914C45.9427 104.424 45.8359 103.836 45.8359 103.148ZM60.5469 104.148C60.5469 103.357 60.474 102.714 60.3281 102.219C60.1823 101.719 59.9818 101.333 59.7266 101.062C59.4974 100.812 59.2656 100.641 59.0312 100.547C58.7969 100.453 58.5391 100.406 58.2578 100.406C57.6172 100.406 57.1068 100.635 56.7266 101.094C56.3464 101.552 56.1562 102.216 56.1562 103.086C56.1562 103.576 56.2188 103.979 56.3438 104.297C56.4688 104.615 56.6719 104.888 56.9531 105.117C57.151 105.279 57.375 105.388 57.625 105.445C57.875 105.497 58.1432 105.523 58.4297 105.523C58.763 105.523 59.1224 105.466 59.5078 105.352C59.8932 105.232 60.2292 105.076 60.5156 104.883C60.5208 104.805 60.526 104.703 60.5312 104.578C60.5417 104.448 60.5469 104.305 60.5469 104.148ZM54.5703 103.148C54.5703 102.549 54.6667 102.003 54.8594 101.508C55.0573 101.013 55.3255 100.586 55.6641 100.227C55.987 99.8828 56.3802 99.6146 56.8438 99.4219C57.3125 99.2292 57.7865 99.1328 58.2656 99.1328C58.8021 99.1328 59.2865 99.224 59.7188 99.4062C60.1562 99.5833 60.5339 99.8411 60.8516 100.18C61.2526 100.607 61.5625 101.167 61.7812 101.859C62.0052 102.552 62.1172 103.427 62.1172 104.484C62.1172 105.448 62.0078 106.362 61.7891 107.227C61.5755 108.086 61.2578 108.799 60.8359 109.367C60.388 109.971 59.849 110.432 59.2188 110.75C58.5938 111.068 57.8203 111.227 56.8984 111.227C56.6901 111.227 56.4688 111.214 56.2344 111.188C56 111.167 55.7812 111.125 55.5781 111.062V109.57H55.6562C55.7865 109.643 55.9896 109.714 56.2656 109.781C56.5417 109.849 56.8229 109.883 57.1094 109.883C58.1302 109.883 58.9323 109.547 59.5156 108.875C60.099 108.203 60.4297 107.242 60.5078 105.992C60.0911 106.273 59.6927 106.479 59.3125 106.609C58.9375 106.74 58.5286 106.805 58.0859 106.805C57.6536 106.805 57.2604 106.758 56.9062 106.664C56.5521 106.57 56.1953 106.388 55.8359 106.117C55.4193 105.799 55.1042 105.398 54.8906 104.914C54.6771 104.424 54.5703 103.836 54.5703 103.148ZM68.4688 98.8438L63.9141 113.531H62.5938L67.125 98.8438H68.4688ZM79.875 111V105.953C79.875 105.552 79.8594 105.182 79.8281 104.844C79.7969 104.5 79.7318 104.232 79.6328 104.039C79.5286 103.831 79.3802 103.677 79.1875 103.578C78.9948 103.479 78.7344 103.43 78.4062 103.43C78.1042 103.43 77.7786 103.523 77.4297 103.711C77.0859 103.893 76.7292 104.159 76.3594 104.508C76.3646 104.596 76.3698 104.703 76.375 104.828C76.3854 104.948 76.3906 105.091 76.3906 105.258V111H74.9219V105.953C74.9219 105.552 74.9062 105.182 74.875 104.844C74.8438 104.5 74.7786 104.232 74.6797 104.039C74.5755 103.831 74.4271 103.677 74.2344 103.578C74.0417 103.479 73.7812 103.43 73.4531 103.43C73.1354 103.43 72.8021 103.529 72.4531 103.727C72.1042 103.924 71.7656 104.177 71.4375 104.484V111H69.9688V102.273H71.4375V103.242C71.8229 102.857 72.2031 102.56 72.5781 102.352C72.9583 102.138 73.375 102.031 73.8281 102.031C74.3438 102.031 74.7995 102.148 75.1953 102.383C75.5964 102.617 75.901 103.003 76.1094 103.539C76.5521 103.044 76.9844 102.669 77.4062 102.414C77.8281 102.159 78.2865 102.031 78.7812 102.031C79.1562 102.031 79.4974 102.091 79.8047 102.211C80.112 102.326 80.3802 102.513 80.6094 102.773C80.8438 103.039 81.0234 103.37 81.1484 103.766C81.2786 104.161 81.3438 104.659 81.3438 105.258V111H79.875ZM90.5859 106.641C90.5859 108.109 90.2318 109.245 89.5234 110.047C88.8151 110.844 87.8724 111.242 86.6953 111.242C85.4818 111.242 84.526 110.831 83.8281 110.008C83.1354 109.18 82.7891 108.057 82.7891 106.641C82.7891 105.182 83.1458 104.049 83.8594 103.242C84.5781 102.435 85.5234 102.031 86.6953 102.031C87.8724 102.031 88.8151 102.435 89.5234 103.242C90.2318 104.044 90.5859 105.177 90.5859 106.641ZM89.0703 106.641C89.0703 105.51 88.8646 104.672 88.4531 104.125C88.0417 103.573 87.4557 103.297 86.6953 103.297C85.9297 103.297 85.3385 103.573 84.9219 104.125C84.5104 104.672 84.3047 105.51 84.3047 106.641C84.3047 107.734 84.5104 108.565 84.9219 109.133C85.3385 109.695 85.9297 109.977 86.6953 109.977C87.4505 109.977 88.0339 109.701 88.4453 109.148C88.862 108.591 89.0703 107.755 89.0703 106.641ZM98.9531 111H97.4844V106.031C97.4844 105.63 97.4635 105.258 97.4219 104.914C97.3854 104.565 97.3125 104.286 97.2031 104.078C97.0833 103.859 96.9167 103.698 96.7031 103.594C96.4896 103.484 96.1979 103.43 95.8281 103.43C95.4635 103.43 95.0859 103.529 94.6953 103.727C94.3099 103.919 93.9323 104.172 93.5625 104.484V111H92.0938V102.273H93.5625V103.242C94 102.852 94.4323 102.552 94.8594 102.344C95.2865 102.135 95.737 102.031 96.2109 102.031C97.0703 102.031 97.7422 102.315 98.2266 102.883C98.7109 103.445 98.9531 104.263 98.9531 105.336V111ZM103.656 111.172C102.854 111.172 102.229 110.945 101.781 110.492C101.333 110.034 101.109 109.312 101.109 108.328V103.492H100.117V102.273H101.109V99.7656H102.578V102.273H105.281V103.492H102.578V107.641C102.578 108.083 102.586 108.424 102.602 108.664C102.617 108.904 102.677 109.128 102.781 109.336C102.87 109.518 103.013 109.656 103.211 109.75C103.409 109.839 103.677 109.883 104.016 109.883C104.255 109.883 104.487 109.849 104.711 109.781C104.935 109.708 105.096 109.648 105.195 109.602H105.281V110.922C105.005 111 104.724 111.06 104.438 111.102C104.156 111.148 103.896 111.172 103.656 111.172ZM113.234 111H111.766V106.031C111.766 105.63 111.745 105.258 111.703 104.914C111.667 104.565 111.594 104.286 111.484 104.078C111.365 103.859 111.198 103.698 110.984 103.594C110.771 103.484 110.479 103.43 110.109 103.43C109.745 103.43 109.367 103.529 108.977 103.727C108.591 103.919 108.214 104.172 107.844 104.484V111H106.375V98.8438H107.844V103.242C108.281 102.852 108.714 102.552 109.141 102.344C109.568 102.135 110.018 102.031 110.492 102.031C111.352 102.031 112.023 102.315 112.508 102.883C112.992 103.445 113.234 104.263 113.234 105.336V111Z" fill="#023347"/>
<path d="M242.6 99C242.771 99 242.936 99.0682 243.058 99.1896C243.179 99.3111 243.247 99.4758 243.247 99.6475V106.77L243.234 106.902C243.204 107.048 243.125 107.18 243.009 107.274C242.893 107.369 242.749 107.42 242.599 107.42C242.45 107.42 242.305 107.368 242.19 107.273C242.074 107.179 241.995 107.047 241.965 106.901L241.952 106.77V101.211L233.344 109.818C233.222 109.936 233.059 110.001 232.889 110C232.719 109.999 232.557 109.93 232.437 109.81C232.317 109.69 232.249 109.528 232.247 109.358C232.246 109.188 232.311 109.025 232.429 108.903L241.037 100.295H235.477C235.306 100.295 235.141 100.227 235.019 100.105C234.898 99.9839 234.83 99.8192 234.83 99.6475C234.83 99.4758 234.898 99.3111 235.019 99.1896C235.141 99.0682 235.306 99 235.477 99H242.6Z" fill="black"/>
<defs>
<filter id="filter0_i_659_111" x="0" y="0" width="266" height="136" filterUnits="userSpaceOnUse" color-interpolation-filters="sRGB">
<feFlood flood-opacity="0" result="BackgroundImageFix"/>
<feBlend mode="normal" in="SourceGraphic" in2="BackgroundImageFix" result="shape"/>
<feColorMatrix in="SourceAlpha" type="matrix" values="0 0 0 0 0 0 0 0 0 0 0 0 0 0 0 0 0 0 127 0" result="hardAlpha"/>
<feOffset dx="2" dy="2"/>
<feGaussianBlur stdDeviation="2"/>
<feComposite in2="hardAlpha" operator="arithmetic" k2="-1" k3="1"/>
<feColorMatrix type="matrix" values="0 0 0 0 0 0 0 0 0 0 0 0 0 0 0 0 0 0 0.25 0"/>
<feBlend mode="normal" in2="shape" result="effect1_innerShadow_659_111"/>
</filter>
</defs>
</svg>
